<?xml version="1.0"?>
<svg xmlns="http://www.w3.org/2000/svg" width="0" height="0" style="position:absolute" aria-hidden="true"><defs>
<symbol id="deco-star-4" viewBox="0 0 24 24"><path d="M12 1 L14 9 L23 12 L14 15 L12 23 L10 15 L1 12 L10 9 Z" fill="#fff4e2"/></symbol>
<symbol id="deco-star-dot" viewBox="0 0 24 24"><circle cx="12" cy="12" r="4" fill="#fff4e2"/></symbol>
<symbol id="deco-sparkle" viewBox="0 0 24 24"><path d="M12 2 L13.4 10.6 L22 12 L13.4 13.4 L12 22 L10.6 13.4 L2 12 L10.6 10.6 Z" fill="#8bf0ff"/></symbol>
<symbol id="deco-planet" viewBox="0 0 64 64"><circle cx="30" cy="32" r="18" fill="#8b7bff" stroke="#2b1a4a" stroke-width="4"/><path d="M22 26 a8 5 0 0 1 12 -2" fill="none" stroke="#c9beff" stroke-width="3.5" stroke-linecap="round"/><ellipse cx="32" cy="34" rx="30" ry="9" fill="none" stroke="#ffcf5c" stroke-width="4" transform="rotate(-18 32 34)"/></symbol>
<symbol id="deco-comet" viewBox="0 0 64 64"><path d="M52 14 L20 40" stroke="#5ce0ff" stroke-width="7" stroke-linecap="round" opacity="0.35"/><path d="M52 14 L28 34" stroke="#8bf0ff" stroke-width="4" stroke-linecap="round" opacity="0.7"/><circle cx="52" cy="14" r="7" fill="#fff4e2" stroke="#2b1a4a" stroke-width="3"/></symbol>
<symbol id="deco-nebula" viewBox="0 0 120 80"><ellipse cx="50" cy="42" rx="46" ry="30" fill="#7b3cd6" opacity="0.5"/><ellipse cx="78" cy="34" rx="34" ry="24" fill="#5ce0ff" opacity="0.22"/><ellipse cx="40" cy="52" rx="30" ry="18" fill="#ff6bb0" opacity="0.18"/></symbol>

<symbol id="sys-single-stable" viewBox="0 0 160 160"><circle cx="80" cy="80" r="70" fill="none" stroke="#8b7bff" stroke-width="3" stroke-dasharray="1 12" stroke-linecap="round"/><circle cx="80" cy="80" r="46" fill="#2a1c58" stroke="#5ce0ff" stroke-width="4.5"/><circle cx="80" cy="80" r="35" fill="#ffcf5c" opacity="0.16"/><path d="M80 46 L88 72 L114 80 L88 88 L80 114 L72 88 L46 80 L72 72 Z" fill="#ffd76a" stroke="#2b1a4a" stroke-width="4.5" stroke-linejoin="round"/><circle cx="80" cy="80" r="15" fill="#ffe8a0" stroke="#2b1a4a" stroke-width="4"/><circle cx="74" cy="74" r="4.5" fill="#fff6d6"/></symbol>
<symbol id="sys-single-destabilizing" viewBox="0 0 160 160"><circle cx="80" cy="80" r="70" fill="none" stroke="#ffb347" stroke-width="3" stroke-dasharray="4 10" stroke-linecap="round"/><circle cx="80" cy="80" r="46" fill="#3a2140" stroke="#ffb347" stroke-width="4.5" stroke-dasharray="9 6"/><circle cx="80" cy="80" r="35" fill="#ff8a3c" opacity="0.2"/><path d="M80 46 L88 72 L114 80 L88 88 L80 114 L72 88 L46 80 L72 72 Z" fill="#ffa93c" stroke="#2b1a4a" stroke-width="4.5" stroke-linejoin="round"/><circle cx="80" cy="80" r="15" fill="#ffd08a" stroke="#2b1a4a" stroke-width="4"/><path d="M80 66 L76 80 L84 82 L79 94" fill="none" stroke="#ff5c3c" stroke-width="3.4" stroke-linecap="round" stroke-linejoin="round"/></symbol>
<symbol id="sys-single-supernova" viewBox="0 0 160 160"><circle cx="80" cy="80" r="72" fill="none" stroke="#ff5c5c" stroke-width="3.5" opacity="0.5"/><circle cx="80" cy="80" r="58" fill="none" stroke="#ff5c5c" stroke-width="4" stroke-dasharray="3 9"/><g fill="#ff7a4c" opacity="0.9"><path d="M80 6 L86 40 L74 40 Z"/><path d="M80 154 L86 120 L74 120 Z"/><path d="M6 80 L40 74 L40 86 Z"/><path d="M154 80 L120 74 L120 86 Z"/><path d="M28 28 L52 46 L44 54 Z"/><path d="M132 132 L108 114 L116 106 Z"/><path d="M132 28 L108 46 L116 54 Z"/><path d="M28 132 L52 114 L44 106 Z"/></g><circle cx="80" cy="80" r="40" fill="#ff5c3c"/><circle cx="80" cy="80" r="26" fill="#ffcf5c"/><circle cx="80" cy="80" r="13" fill="#fff6e2"/></symbol>
<symbol id="sys-binary-stable" viewBox="0 0 180 180"><circle cx="90" cy="90" r="80" fill="none" stroke="#8b7bff" stroke-width="3" stroke-dasharray="1 12" stroke-linecap="round"/><circle cx="90" cy="90" r="56" fill="#332063" stroke="#ffcf5c" stroke-width="4.5"/><circle cx="90" cy="90" r="56" fill="none" stroke="#5ce0ff" stroke-width="3.5" stroke-dasharray="5 9"/><path d="M74 56 L79 74 L97 79 L79 84 L74 102 L69 84 L51 79 L69 74 Z" fill="#ffd76a" stroke="#2b1a4a" stroke-width="4" stroke-linejoin="round"/><circle cx="74" cy="79" r="10.5" fill="#ffe8a0" stroke="#2b1a4a" stroke-width="3.4"/><path d="M112 82 L116 96 L130 100 L116 104 L112 118 L108 104 L94 100 L108 96 Z" fill="#ff9a52" stroke="#2b1a4a" stroke-width="3.6" stroke-linejoin="round"/><circle cx="112" cy="100" r="8" fill="#ffc79a" stroke="#2b1a4a" stroke-width="3"/><path d="M126 60 l0 8 M122 64 l8 0" stroke="#5ce0ff" stroke-width="3" stroke-linecap="round"/></symbol>
<symbol id="sys-binary-destabilizing" viewBox="0 0 180 180"><circle cx="90" cy="90" r="80" fill="none" stroke="#ffb347" stroke-width="3" stroke-dasharray="4 10" stroke-linecap="round"/><circle cx="90" cy="90" r="56" fill="#402340" stroke="#ffb347" stroke-width="4.5" stroke-dasharray="9 6"/><path d="M74 56 L79 74 L97 79 L79 84 L74 102 L69 84 L51 79 L69 74 Z" fill="#ffa93c" stroke="#2b1a4a" stroke-width="4" stroke-linejoin="round"/><circle cx="74" cy="79" r="10.5" fill="#ffd08a" stroke="#2b1a4a" stroke-width="3.4"/><path d="M112 82 L116 96 L130 100 L116 104 L112 118 L108 104 L94 100 L108 96 Z" fill="#ff7a3c" stroke="#2b1a4a" stroke-width="3.6" stroke-linejoin="round"/><circle cx="112" cy="100" r="8" fill="#ffb07a" stroke="#2b1a4a" stroke-width="3"/><path d="M90 108 L86 120 L94 122" fill="none" stroke="#ff5c3c" stroke-width="3.2" stroke-linecap="round" stroke-linejoin="round"/></symbol>
<symbol id="sys-binary-supernova" viewBox="0 0 180 180"><circle cx="90" cy="90" r="82" fill="none" stroke="#ff5c5c" stroke-width="3.5" opacity="0.5"/><circle cx="90" cy="90" r="66" fill="none" stroke="#ff5c5c" stroke-width="4" stroke-dasharray="3 9"/><g fill="#ff7a4c" opacity="0.9"><path d="M90 10 L96 44 L84 44 Z"/><path d="M90 170 L96 136 L84 136 Z"/><path d="M10 90 L44 84 L44 96 Z"/><path d="M170 90 L136 84 L136 96 Z"/><path d="M34 34 L60 52 L52 60 Z"/><path d="M146 146 L120 128 L128 120 Z"/></g><circle cx="76" cy="82" r="30" fill="#ff5c3c"/><circle cx="76" cy="82" r="17" fill="#ffcf5c"/><circle cx="112" cy="104" r="20" fill="#ff7a3c"/><circle cx="112" cy="104" r="10" fill="#ffe08a"/></symbol>

<symbol id="ring-neutral" viewBox="0 0 160 160"><circle cx="80" cy="80" r="58" fill="none" stroke="#6b5ca8" stroke-width="4" stroke-dasharray="2 10" stroke-linecap="round"/></symbol>
<symbol id="ring-owned-p1" viewBox="0 0 160 160"><circle cx="80" cy="80" r="58" fill="none" stroke="#ff8a3c" stroke-width="5"/><circle cx="80" cy="80" r="58" fill="none" stroke="#ffcf5c" stroke-width="2" stroke-dasharray="6 8"/></symbol>
<symbol id="ring-owned-p2" viewBox="0 0 160 160"><circle cx="80" cy="80" r="58" fill="none" stroke="#2f8bff" stroke-width="5"/><circle cx="80" cy="80" r="58" fill="none" stroke="#8bf0ff" stroke-width="2" stroke-dasharray="6 8"/></symbol>
<symbol id="flag-p1" viewBox="0 0 48 48"><ellipse cx="20" cy="42" rx="12" ry="3.5" fill="#2b1a4a" opacity="0.3"/><path d="M14 42 V8" stroke="#2b1a4a" stroke-width="3.6" stroke-linecap="round"/><path d="M14 9 L38 15 L14 25 Z" fill="#ff6b3c" stroke="#2b1a4a" stroke-width="3.4" stroke-linejoin="round"/><circle cx="14" cy="7" r="3.4" fill="#ffcf5c" stroke="#2b1a4a" stroke-width="2.2"/></symbol>
<symbol id="flag-p2" viewBox="0 0 48 48"><ellipse cx="20" cy="42" rx="12" ry="3.5" fill="#2b1a4a" opacity="0.3"/><path d="M14 42 V8" stroke="#2b1a4a" stroke-width="3.6" stroke-linecap="round"/><path d="M14 9 L38 15 L14 25 Z" fill="#2f8bff" stroke="#2b1a4a" stroke-width="3.4" stroke-linejoin="round"/><circle cx="14" cy="7" r="3.4" fill="#5ce0ff" stroke="#2b1a4a" stroke-width="2.2"/></symbol>

<symbol id="cache-energy" viewBox="0 0 64 64"><path d="M32 6 L54 19 V45 L32 58 L10 45 V19 Z" fill="#123a52" stroke="#5ce0ff" stroke-width="4" stroke-linejoin="round"/><path d="M34 17 L21 37 H30 L28 49 L43 28 H34 Z" fill="#8bf0ff" stroke="#eafcff" stroke-width="2.2" stroke-linejoin="round"/></symbol>
<symbol id="cache-overcharge" viewBox="0 0 64 64"><path d="M32 6 L54 19 V45 L32 58 L10 45 V19 Z" fill="#3a1c12" stroke="#ff8a3c" stroke-width="4" stroke-linejoin="round"/><path d="M34 16 L20 38 H30 L27 50 L44 27 H34 Z" fill="#ff8a3c" stroke="#ffe0b0" stroke-width="2.2" stroke-linejoin="round"/></symbol>

<symbol id="ship-warm" viewBox="0 0 140 140"><path d="M92 94 L124 116 L96 72 Z" fill="#ff6b3c" stroke="#2b1a4a" stroke-width="5" stroke-linejoin="round"/><path d="M48 94 L16 116 L44 72 Z" fill="#ff6b3c" stroke="#2b1a4a" stroke-width="5" stroke-linejoin="round"/><path d="M70 12 C90 38 98 74 92 102 L48 102 C42 74 50 38 70 12 Z" fill="#ff9a52" stroke="#2b1a4a" stroke-width="5.5" stroke-linejoin="round"/><ellipse cx="70" cy="56" rx="15" ry="19" fill="#5ce0ff" stroke="#2b1a4a" stroke-width="5"/><path d="M62 48 Q66 44 72 46" fill="none" stroke="#ffffff" stroke-width="4" stroke-linecap="round"/><circle cx="70" cy="90" r="4" fill="#ffcf5c" stroke="#2b1a4a" stroke-width="3"/></symbol>
<symbol id="ship-warm-flame" viewBox="0 0 140 140"><path d="M57 100 Q70 134 83 100 Q70 116 57 100 Z" fill="#ff6bb0"/><path d="M62 100 Q70 122 78 100 Q70 112 62 100 Z" fill="#ffcf5c"/></symbol>
<symbol id="ship-cool" viewBox="0 0 140 140"><path d="M90 90 L130 104 L94 68 Z" fill="#2f6bd6" stroke="#2b1a4a" stroke-width="5" stroke-linejoin="round"/><path d="M50 90 L10 104 L46 68 Z" fill="#2f6bd6" stroke="#2b1a4a" stroke-width="5" stroke-linejoin="round"/><path d="M70 8 C86 40 92 76 87 104 L53 104 C48 76 54 40 70 8 Z" fill="#4aa8ff" stroke="#2b1a4a" stroke-width="5.5" stroke-linejoin="round"/><path d="M70 40 L84 52 L79 74 L61 74 L56 52 Z" fill="#0e2a4a" stroke="#2b1a4a" stroke-width="4.6" stroke-linejoin="round"/><path d="M63 50 L71 46" fill="none" stroke="#5ce0ff" stroke-width="3.4" stroke-linecap="round"/><path d="M70 20 L64 34 M70 20 L76 34" fill="none" stroke="#2b1a4a" stroke-width="4" stroke-linecap="round"/></symbol>
<symbol id="ship-cool-flame" viewBox="0 0 140 140"><path d="M60 100 Q70 132 80 100 Q70 114 60 100 Z" fill="#5ce0ff"/><path d="M64 100 Q70 120 76 100 Q70 112 64 100 Z" fill="#eafcff"/></symbol>
<symbol id="marker-candidate" viewBox="0 0 80 80"><circle cx="40" cy="40" r="34" fill="#8b7bff" opacity="0.12"/><circle cx="40" cy="40" r="34" fill="none" stroke="#8b7bff" stroke-width="3.5" stroke-dasharray="5 8"/><path d="M32 32 a8 8 0 1 1 10 11 c-2 2 -2 3 -2 6" fill="none" stroke="#c9beff" stroke-width="5" stroke-linecap="round" stroke-linejoin="round"/><circle cx="40" cy="56" r="3.2" fill="#c9beff"/></symbol>
<symbol id="fx-cloak" viewBox="0 0 140 140"><ellipse cx="70" cy="60" rx="52" ry="60" fill="#8b7bff" opacity="0.12"/><path d="M28 44 q10 -8 20 0 M92 44 q10 -8 20 0 M24 78 q10 -8 20 0 M96 78 q10 -8 20 0" fill="none" stroke="#c9beff" stroke-width="3" stroke-linecap="round" opacity="0.7"/><use href="#deco-sparkle" x="18" y="30" width="16" height="16"/><use href="#deco-sparkle" x="104" y="66" width="14" height="14"/></symbol>

<symbol id="act-jump" viewBox="0 0 64 64"><path d="M17 44 C 20 27, 33 21, 45 24" fill="none" stroke="#2b1a4a" stroke-width="4.5" stroke-linecap="round" stroke-dasharray="0.1 9"/><circle cx="13" cy="49" r="6" fill="#5ce0ff" stroke="#2b1a4a" stroke-width="3.5"/><path d="M39 15 L49 22 L42 31" fill="none" stroke="#2b1a4a" stroke-width="4.5" stroke-linecap="round" stroke-linejoin="round"/><circle cx="50" cy="18" r="6" fill="#ffcf5c" stroke="#2b1a4a" stroke-width="3.5"/></symbol>
<symbol id="act-hold" viewBox="0 0 64 64"><path d="M32 7 L52 15 V31 C52 44 43 52 32 57 C21 52 12 44 12 31 V15 Z" fill="#8b7bff" stroke="#2b1a4a" stroke-width="4" stroke-linejoin="round"/><rect x="24.5" y="24" width="6" height="16" rx="3" fill="#fff4e2" stroke="#2b1a4a" stroke-width="2.6"/><rect x="33.5" y="24" width="6" height="16" rx="3" fill="#fff4e2" stroke="#2b1a4a" stroke-width="2.6"/></symbol>
<symbol id="act-claim" viewBox="0 0 64 64"><ellipse cx="30" cy="53" rx="17" ry="5.5" fill="#2b1a4a" opacity="0.25"/><path d="M22 52 V13" stroke="#2b1a4a" stroke-width="4.5" stroke-linecap="round"/><path d="M22 14 L47 20 L22 31 Z" fill="#ff6bb0" stroke="#2b1a4a" stroke-width="4" stroke-linejoin="round"/><circle cx="22" cy="11" r="4" fill="#ffcf5c" stroke="#2b1a4a" stroke-width="2.6"/></symbol>
<symbol id="act-fire" viewBox="0 0 64 64"><circle cx="32" cy="32" r="16" fill="none" stroke="#2b1a4a" stroke-width="4"/><path d="M32 8 V16 M32 48 V56 M8 32 H16 M48 32 H56" stroke="#2b1a4a" stroke-width="4.5" stroke-linecap="round"/><circle cx="32" cy="32" r="6" fill="#ff5c5c" stroke="#2b1a4a" stroke-width="3"/></symbol>
<symbol id="act-scan" viewBox="0 0 64 64"><path d="M16 36 A14 14 0 0 1 30 50" fill="none" stroke="#5ce0ff" stroke-width="4.2" stroke-linecap="round"/><path d="M16 26 A24 24 0 0 1 40 50" fill="none" stroke="#5ce0ff" stroke-width="4.2" stroke-linecap="round" opacity="0.7"/><path d="M16 16 A34 34 0 0 1 50 50" fill="none" stroke="#5ce0ff" stroke-width="4.2" stroke-linecap="round" opacity="0.4"/><circle cx="16" cy="50" r="5" fill="#5ce0ff" stroke="#2b1a4a" stroke-width="2.6"/><circle cx="44" cy="24" r="4.5" fill="#ff6bb0" stroke="#2b1a4a" stroke-width="2.6"/></symbol>
<symbol id="act-cloak" viewBox="0 0 64 64"><path d="M9 32 C 18 20, 46 20, 55 32 C 46 44, 18 44, 9 32 Z" fill="#8b7bff" stroke="#2b1a4a" stroke-width="4" stroke-linejoin="round"/><circle cx="32" cy="32" r="7.5" fill="#fff4e2" stroke="#2b1a4a" stroke-width="3.4"/><circle cx="32" cy="32" r="3.2" fill="#2b1a4a"/><path d="M14 51 L50 13" stroke="#ff6bb0" stroke-width="5.5" stroke-linecap="round"/></symbol>
<symbol id="act-overcharge" viewBox="0 0 64 64"><path d="M33 6 L17 35 H29 L27 58 L47 27 H34 Z" fill="#ff8a3c" stroke="#2b1a4a" stroke-width="4" stroke-linejoin="round"/><circle cx="50" cy="15" r="9" fill="#ff5c3c" stroke="#2b1a4a" stroke-width="3"/><path d="M50 11 V19 M46 15 H54" stroke="#fff4e2" stroke-width="3" stroke-linecap="round"/></symbol>
<symbol id="act-unlock-proximity" viewBox="0 0 64 64"><path d="M40 15 A22 22 0 0 1 40 49" fill="none" stroke="#ffcf5c" stroke-width="4.2" stroke-linecap="round"/><path d="M48 9 A31 31 0 0 1 48 55" fill="none" stroke="#ffcf5c" stroke-width="4" stroke-linecap="round" opacity="0.5"/><circle cx="24" cy="32" r="10" fill="#ff5c5c" stroke="#2b1a4a" stroke-width="3.4"/><path d="M24 27 V33" stroke="#fff4e2" stroke-width="3.2" stroke-linecap="round"/><circle cx="24" cy="37.5" r="1.8" fill="#fff4e2"/></symbol>
<symbol id="act-unlock-scanners" viewBox="0 0 64 64"><g transform="rotate(-32 28 34)"><ellipse cx="28" cy="34" rx="17" ry="11" fill="#5ce0ff" stroke="#2b1a4a" stroke-width="3.6"/><ellipse cx="28" cy="34" rx="7" ry="4.5" fill="#123a52"/></g><path d="M27 42 L23 55 M20 55 H34" stroke="#2b1a4a" stroke-width="3.8" stroke-linecap="round"/><circle cx="46" cy="16" r="2.6" fill="#ffcf5c"/><circle cx="52" cy="22" r="3.4" fill="#ffcf5c"/><circle cx="40" cy="12" r="2" fill="#ffcf5c" opacity="0.7"/></symbol>
<symbol id="act-unlock-jamming" viewBox="0 0 64 64"><path d="M22 34 A15 15 0 0 1 37 49" fill="none" stroke="#ffcf5c" stroke-width="4.2" stroke-linecap="round"/><path d="M22 24 A25 25 0 0 1 47 49" fill="none" stroke="#ffcf5c" stroke-width="4.2" stroke-linecap="round" opacity="0.6"/><circle cx="22" cy="49" r="5" fill="#ff6bb0" stroke="#2b1a4a" stroke-width="2.6"/><path d="M12 52 L52 12" stroke="#ff5c5c" stroke-width="5.5" stroke-linecap="round"/></symbol>

<symbol id="fx-hit" viewBox="0 0 64 64"><g fill="#ff5c3c" stroke="#2b1a4a" stroke-width="3" stroke-linejoin="round"><path d="M32 4 L38 22 L32 32 L26 22 Z"/><path d="M32 60 L38 42 L32 32 L26 42 Z"/><path d="M4 32 L22 26 L32 32 L22 38 Z"/><path d="M60 32 L42 26 L32 32 L42 38 Z"/><path d="M12 12 L27 24 L32 32 L20 27 Z"/><path d="M52 52 L37 40 L32 32 L44 37 Z"/><path d="M52 12 L40 27 L32 32 L37 20 Z"/><path d="M12 52 L24 37 L32 32 L27 44 Z"/></g><circle cx="32" cy="32" r="10" fill="#ffcf5c" stroke="#2b1a4a" stroke-width="3"/><circle cx="32" cy="32" r="4" fill="#fff6e2"/></symbol>
<symbol id="fx-miss" viewBox="0 0 64 64"><circle cx="32" cy="32" r="18" fill="none" stroke="#8b7bff" stroke-width="4" stroke-dasharray="4 7"/><path d="M24 24 L40 40 M40 24 L24 40" stroke="#c9beff" stroke-width="5" stroke-linecap="round"/><circle cx="49" cy="17" r="3" fill="#8b7bff" opacity="0.6"/><circle cx="16" cy="46" r="4" fill="#8b7bff" opacity="0.4"/></symbol>
<symbol id="fx-scan-ping" viewBox="0 0 64 64"><circle cx="32" cy="32" r="8" fill="#5ce0ff" stroke="#eafcff" stroke-width="2.5"/><circle cx="32" cy="32" r="18" fill="none" stroke="#5ce0ff" stroke-width="3.5" opacity="0.7"/><circle cx="32" cy="32" r="28" fill="none" stroke="#5ce0ff" stroke-width="3" opacity="0.35"/></symbol>
<symbol id="fx-exposed" viewBox="0 0 64 64"><path d="M8 32 C 20 16, 44 16, 56 32 C 44 48, 20 48, 8 32 Z" fill="#ff5c5c" stroke="#2b1a4a" stroke-width="4" stroke-linejoin="round"/><circle cx="32" cy="32" r="10" fill="#fff4e2" stroke="#2b1a4a" stroke-width="3.4"/><circle cx="32" cy="32" r="4.6" fill="#2b1a4a"/></symbol>
<symbol id="fx-spent-energy" viewBox="0 0 64 64"><circle cx="32" cy="32" r="22" fill="none" stroke="#8b7bff" stroke-width="4" stroke-dasharray="3 8"/><path d="M35 16 L23 36 H31 L29 48 L42 28 H33 Z" fill="#8b7bff" stroke="#c9beff" stroke-width="2" stroke-linejoin="round"/></symbol>

<symbol id="res-energy" viewBox="0 0 64 64"><path d="M32 5 L55 18.5 V45.5 L32 59 L9 45.5 V18.5 Z" fill="#123a52" stroke="#5ce0ff" stroke-width="4" stroke-linejoin="round"/><path d="M35 15 L21 36 H30 L28 50 L44 27 H34 Z" fill="#8bf0ff" stroke="#eafcff" stroke-width="2.4" stroke-linejoin="round"/></symbol>
<symbol id="res-overcharge" viewBox="0 0 64 64"><circle cx="32" cy="32" r="27" fill="#3a1c12" stroke="#ff8a3c" stroke-width="4"/><path d="M35 11 L18 37 H29 L26 53 L46 27 H34 Z" fill="#ff8a3c" stroke="#ffe0b0" stroke-width="2.6" stroke-linejoin="round"/></symbol>
<symbol id="bolt-energy" viewBox="0 0 24 24"><path d="M14 2 L5 14 H11 L10 22 L19 9 H13 Z" fill="#5ce0ff" stroke="#123a52" stroke-width="1.4" stroke-linejoin="round"/></symbol>
<symbol id="bolt-action" viewBox="0 0 24 24"><path d="M14 2 L5 14 H11 L10 22 L19 9 H13 Z" fill="#ff8a3c" stroke="#5a2410" stroke-width="1.4" stroke-linejoin="round"/></symbol>
<symbol id="pip-action" viewBox="0 0 24 24"><circle cx="12" cy="12" r="9" fill="#ff8a3c" stroke="#2b1a4a" stroke-width="2.4"/><path d="M13 5 L7 14 H11 L10 19 L17 10 H12 Z" fill="#fff4e2"/></symbol>
<symbol id="badge-lock" viewBox="0 0 28 28"><circle cx="14" cy="14" r="13" fill="#ffcf5c" stroke="#2b1a4a" stroke-width="2.5"/><path d="M10 14 V11 a4 4 0 0 1 8 0 V14" fill="none" stroke="#2b1a4a" stroke-width="2.4"/><rect x="8.5" y="13.5" width="11" height="8.5" rx="2.2" fill="#2b1a4a"/></symbol>
<symbol id="badge-p1" viewBox="0 0 28 28"><circle cx="14" cy="14" r="12" fill="#ff9a52" stroke="#2b1a4a" stroke-width="2.6"/><text x="14" y="19" text-anchor="middle" font-family="Baloo 2, sans-serif" font-weight="800" font-size="15" fill="#2b1a4a">1</text></symbol>
<symbol id="badge-p2" viewBox="0 0 28 28"><circle cx="14" cy="14" r="12" fill="#4aa8ff" stroke="#2b1a4a" stroke-width="2.6"/><text x="14" y="19" text-anchor="middle" font-family="Baloo 2, sans-serif" font-weight="800" font-size="15" fill="#2b1a4a">2</text></symbol>
<symbol id="hud-timer" viewBox="0 0 64 64"><circle cx="32" cy="34" r="22" fill="#141033" stroke="#5ce0ff" stroke-width="4"/><path d="M32 34 V20" stroke="#5ce0ff" stroke-width="4" stroke-linecap="round"/><path d="M32 34 L42 40" stroke="#ff8a3c" stroke-width="4" stroke-linecap="round"/><rect x="26" y="6" width="12" height="5" rx="2.5" fill="#5ce0ff"/><circle cx="32" cy="34" r="3" fill="#eafcff"/></symbol>

<!-- Batch 2: HUD/mechanics + tournament -->
<symbol id="hud-life-filled" viewBox="0 0 24 24"><path d="M12 21 C12 21 3 15 3 8.5 C3 5.5 5.5 3 8.5 3 C10 3 11.3 3.8 12 5 C12.7 3.8 14 3 15.5 3 C18.5 3 21 5.5 21 8.5 C21 15 12 21 12 21 Z" fill="#ff6b3c" stroke="#2b1a4a" stroke-width="1.6" stroke-linejoin="round"/><circle cx="9" cy="8" r="1.6" fill="#ffd8c0"/></symbol>
<symbol id="hud-life-empty" viewBox="0 0 24 24"><path d="M12 21 C12 21 3 15 3 8.5 C3 5.5 5.5 3 8.5 3 C10 3 11.3 3.8 12 5 C12.7 3.8 14 3 15.5 3 C18.5 3 21 5.5 21 8.5 C21 15 12 21 12 21 Z" fill="none" stroke="#5a4a7a" stroke-width="1.8" stroke-dasharray="2 2.6"/></symbol>
<symbol id="res-domination" viewBox="0 0 64 64"><path d="M12 44 L16 20 L26 32 L32 14 L38 32 L48 20 L52 44 Z" fill="#ffd76a" stroke="#2b1a4a" stroke-width="3.4" stroke-linejoin="round"/><path d="M14 44 H50 V50 Q50 54 46 54 H18 Q14 54 14 50 Z" fill="#3a2140" stroke="#ffcf5c" stroke-width="3"/><circle cx="16" cy="20" r="3" fill="#ff6bb0" stroke="#2b1a4a" stroke-width="1.6"/><circle cx="32" cy="14" r="3.4" fill="#5ce0ff" stroke="#2b1a4a" stroke-width="1.6"/><circle cx="48" cy="20" r="3" fill="#ff9a52" stroke="#2b1a4a" stroke-width="1.6"/></symbol>
<symbol id="ring-fogged" viewBox="0 0 160 160"><circle cx="80" cy="80" r="58" fill="none" stroke="#6b5ca8" stroke-width="4" stroke-dasharray="1 7" opacity="0.6"/><path d="M52 66 q9 -9 18 0 q9 -9 18 0 q9 -9 18 0" fill="none" stroke="#c9beff" stroke-width="3" stroke-linecap="round" opacity="0.45"/><path d="M52 96 q9 -9 18 0 q9 -9 18 0 q9 -9 18 0" fill="none" stroke="#c9beff" stroke-width="3" stroke-linecap="round" opacity="0.32"/><path d="M72 76 a10 9 0 1 1 14 8 c-3 2 -4 4 -4 8" fill="none" stroke="#c9beff" stroke-width="5" stroke-linecap="round" stroke-linejoin="round" opacity="0.8"/><circle cx="80" cy="106" r="3" fill="#c9beff" opacity="0.8"/></symbol>
<symbol id="fx-capture" viewBox="0 0 64 64"><path d="M18 52 V12" stroke="#2b1a4a" stroke-width="4" stroke-linecap="round"/><path d="M18 13 L34 18 L18 23 Z" fill="#ff6b3c" stroke="#2b1a4a" stroke-width="2.6" stroke-linejoin="round"/><path d="M18 46 L34 51 L18 56 Z" fill="#2f6bd6" stroke="#2b1a4a" stroke-width="2.6" stroke-linejoin="round" opacity="0.5"/><path d="M38 18 A16 16 0 1 1 34 42" fill="none" stroke="#ffcf5c" stroke-width="4" stroke-linecap="round"/><path d="M28 38 L34 42 L32 34" fill="none" stroke="#ffcf5c" stroke-width="4" stroke-linecap="round" stroke-linejoin="round"/></symbol>
<symbol id="fx-eliminated" viewBox="0 0 64 64"><path d="M32 10 C20 10 12 18 12 30 C12 38 16 44 20 47 V54 H44 V47 C48 44 52 38 52 30 C52 18 44 10 32 10 Z" fill="#e7e0f5" stroke="#2b1a4a" stroke-width="4" stroke-linejoin="round"/><ellipse cx="23" cy="30" rx="5" ry="6.5" fill="#2b1a4a"/><ellipse cx="41" cy="30" rx="5" ry="6.5" fill="#2b1a4a"/><path d="M32 34 L28 41 H36 Z" fill="#2b1a4a"/><path d="M22 47 V54 M28 47.5 V54 M36 47.5 V54 M42 47 V54" stroke="#2b1a4a" stroke-width="2.6" stroke-linecap="round"/></symbol>
<symbol id="fx-respawn" viewBox="0 0 64 64"><ellipse cx="32" cy="52" rx="18" ry="6" fill="#5ce0ff" opacity="0.22"/><path d="M32 10 V46" stroke="#5ce0ff" stroke-width="4" stroke-linecap="round" stroke-dasharray="1 7"/><path d="M18 20 H46" stroke="#8bf0ff" stroke-width="3" stroke-linecap="round" opacity="0.6"/><path d="M14 30 H50" stroke="#8bf0ff" stroke-width="3" stroke-linecap="round" opacity="0.4"/><path d="M20 40 H44" stroke="#8bf0ff" stroke-width="3" stroke-linecap="round" opacity="0.25"/><use href="#deco-sparkle" x="8" y="6" width="15" height="15"/><use href="#deco-sparkle" x="42" y="38" width="13" height="13"/></symbol>
<symbol id="fx-shield-radar" viewBox="0 0 140 140"><ellipse cx="70" cy="60" rx="54" ry="62" fill="#ffcf5c" opacity="0.08"/><path d="M70 8 L102 22 V54 C102 80 89 99 70 110 C51 99 38 80 38 54 V22 Z" fill="none" stroke="#ffcf5c" stroke-width="3.4" stroke-dasharray="2 9" opacity="0.85"/><circle cx="70" cy="58" r="9" fill="none" stroke="#ff5c5c" stroke-width="3.2"/><path d="M70 58 L70 44" stroke="#ff5c5c" stroke-width="3.2" stroke-linecap="round"/><path d="M70 58 L80 63" stroke="#ff5c5c" stroke-width="3.2" stroke-linecap="round"/></symbol>
<symbol id="tour-logo" viewBox="0 0 64 64"><circle cx="32" cy="32" r="28" fill="#141033" stroke="#5ce0ff" stroke-width="3.4"/><path d="M32 10 C40 22 43 34 40 46 L24 46 C21 34 24 22 32 10 Z" fill="#ff9a52" stroke="#2b1a4a" stroke-width="3.4" stroke-linejoin="round"/><ellipse cx="32" cy="26" rx="6" ry="8" fill="#5ce0ff" stroke="#2b1a4a" stroke-width="2.4"/><path d="M40 40 L50 46 L42 32 Z" fill="#ff6b3c" stroke="#2b1a4a" stroke-width="2.6" stroke-linejoin="round"/><path d="M24 40 L14 46 L22 32 Z" fill="#ff6b3c" stroke="#2b1a4a" stroke-width="2.6" stroke-linejoin="round"/></symbol>
<symbol id="tour-trophy" viewBox="0 0 64 64"><path d="M22 12 H42 V26 C42 34 37 40 32 40 C27 40 22 34 22 26 Z" fill="#ffd76a" stroke="#2b1a4a" stroke-width="3.4" stroke-linejoin="round"/><path d="M22 16 C14 16 14 28 22 28" fill="none" stroke="#2b1a4a" stroke-width="3.2"/><path d="M42 16 C50 16 50 28 42 28" fill="none" stroke="#2b1a4a" stroke-width="3.2"/><rect x="29" y="40" width="6" height="8" fill="#ffcf5c" stroke="#2b1a4a" stroke-width="2.6"/><rect x="20" y="48" width="24" height="6" rx="2" fill="#ffcf5c" stroke="#2b1a4a" stroke-width="3"/><rect x="24" y="54" width="16" height="4" rx="2" fill="#ffb347" stroke="#2b1a4a" stroke-width="2.2"/><path d="M32 18 L33.6 22 L38 22.6 L34.8 25.4 L35.6 30 L32 27.6 L28.4 30 L29.2 25.4 L26 22.6 L30.4 22 Z" fill="#fff6d6"/></symbol>
<symbol id="tour-medal-gold" viewBox="0 0 64 64"><path d="M22 6 L32 30 L26 30 L16 8 Z" fill="#ff6bb0" stroke="#2b1a4a" stroke-width="2.4" stroke-linejoin="round"/><path d="M42 6 L32 30 L38 30 L48 8 Z" fill="#2f6bd6" stroke="#2b1a4a" stroke-width="2.4" stroke-linejoin="round"/><circle cx="32" cy="40" r="18" fill="#ffd76a" stroke="#2b1a4a" stroke-width="3.6"/><circle cx="32" cy="40" r="11" fill="none" stroke="#2b1a4a" stroke-width="2" opacity="0.3"/><path d="M32 32 L34 38 L40 38.6 L35.6 42.4 L37 48 L32 44.8 L27 48 L28.4 42.4 L24 38.6 L30 38 Z" fill="#fff6d6"/></symbol>
<symbol id="tour-medal-silver" viewBox="0 0 64 64"><path d="M22 6 L32 30 L26 30 L16 8 Z" fill="#ff6bb0" stroke="#2b1a4a" stroke-width="2.4" stroke-linejoin="round"/><path d="M42 6 L32 30 L38 30 L48 8 Z" fill="#2f6bd6" stroke="#2b1a4a" stroke-width="2.4" stroke-linejoin="round"/><circle cx="32" cy="40" r="18" fill="#cfd8e6" stroke="#2b1a4a" stroke-width="3.6"/><circle cx="32" cy="40" r="11" fill="none" stroke="#2b1a4a" stroke-width="2" opacity="0.3"/><path d="M32 32 L34 38 L40 38.6 L35.6 42.4 L37 48 L32 44.8 L27 48 L28.4 42.4 L24 38.6 L30 38 Z" fill="#f4f8ff"/></symbol>
<symbol id="tour-medal-bronze" viewBox="0 0 64 64"><path d="M22 6 L32 30 L26 30 L16 8 Z" fill="#ff6bb0" stroke="#2b1a4a" stroke-width="2.4" stroke-linejoin="round"/><path d="M42 6 L32 30 L38 30 L48 8 Z" fill="#2f6bd6" stroke="#2b1a4a" stroke-width="2.4" stroke-linejoin="round"/><circle cx="32" cy="40" r="18" fill="#d99a5c" stroke="#2b1a4a" stroke-width="3.6"/><circle cx="32" cy="40" r="11" fill="none" stroke="#2b1a4a" stroke-width="2" opacity="0.3"/><path d="M32 32 L34 38 L40 38.6 L35.6 42.4 L37 48 L32 44.8 L27 48 L28.4 42.4 L24 38.6 L30 38 Z" fill="#ffe6cc"/></symbol>
<symbol id="tour-bot" viewBox="0 0 64 64"><path d="M32 18 V10" stroke="#2b1a4a" stroke-width="3.2" stroke-linecap="round"/><circle cx="32" cy="8" r="3.4" fill="#ffcf5c" stroke="#2b1a4a" stroke-width="2"/><rect x="16" y="18" width="32" height="26" rx="8" fill="#2a1c58" stroke="#5ce0ff" stroke-width="3.6"/><rect x="10" y="26" width="6" height="10" rx="3" fill="#2a1c58" stroke="#5ce0ff" stroke-width="2.6"/><rect x="48" y="26" width="6" height="10" rx="3" fill="#2a1c58" stroke="#5ce0ff" stroke-width="2.6"/><rect x="22" y="26" width="8" height="8" rx="2" fill="#5ce0ff"/><rect x="34" y="26" width="8" height="8" rx="2" fill="#5ce0ff"/><rect x="24" y="38" width="16" height="3" rx="1.5" fill="#8bf0ff"/></symbol>
<symbol id="tour-upload" viewBox="0 0 48 48"><path d="M24 6 L24 28" stroke="#ff9a52" stroke-width="4" stroke-linecap="round"/><path d="M15 15 L24 6 L33 15" fill="none" stroke="#ff9a52" stroke-width="4" stroke-linecap="round" stroke-linejoin="round"/><path d="M10 30 V38 C10 40 12 42 14 42 H34 C36 42 38 40 38 38 V30" fill="none" stroke="#5ce0ff" stroke-width="4" stroke-linecap="round" stroke-linejoin="round"/></symbol>
<symbol id="tour-user" viewBox="0 0 48 48"><circle cx="24" cy="17" r="9" fill="#ffcf5c" stroke="#2b1a4a" stroke-width="3.2"/><path d="M8 40 C8 28 40 28 40 40 Z" fill="#8b7bff" stroke="#2b1a4a" stroke-width="3.4" stroke-linejoin="round"/></symbol>
<symbol id="lang-python" viewBox="0 0 48 48"><rect x="4" y="4" width="40" height="40" rx="12" fill="#123a52" stroke="#5ce0ff" stroke-width="3"/><text x="24" y="31" text-anchor="middle" font-family="Baloo 2, sans-serif" font-weight="800" font-size="19" fill="#8bf0ff">PY</text></symbol>
<symbol id="lang-cpp" viewBox="0 0 48 48"><rect x="4" y="4" width="40" height="40" rx="12" fill="#3a1c12" stroke="#ff8a3c" stroke-width="3"/><text x="24" y="30" text-anchor="middle" font-family="Baloo 2, sans-serif" font-weight="800" font-size="15" fill="#ffb347">C++</text></symbol>
<symbol id="match-win" viewBox="0 0 24 24"><circle cx="12" cy="12" r="10" fill="#123a52" stroke="#5ce0ff" stroke-width="2"/><path d="M7 12 L10.5 15.5 L17 8.5" fill="none" stroke="#8bf0ff" stroke-width="2.6" stroke-linecap="round" stroke-linejoin="round"/></symbol>
<symbol id="match-loss" viewBox="0 0 24 24"><circle cx="12" cy="12" r="10" fill="#3a1414" stroke="#ff5c5c" stroke-width="2"/><path d="M8 8 L16 16 M16 8 L8 16" stroke="#ff8a8a" stroke-width="2.6" stroke-linecap="round"/></symbol>
<symbol id="match-draw" viewBox="0 0 24 24"><circle cx="12" cy="12" r="10" fill="#241653" stroke="#8b7bff" stroke-width="2"/><path d="M7 12 H17" stroke="#c9beff" stroke-width="2.6" stroke-linecap="round"/></symbol>
<symbol id="tour-verified" viewBox="0 0 28 28"><path d="M14 2 L17 5 L21 5.5 L21.5 9.5 L24 12.5 L21.8 15.8 L21.5 20 L17.3 20.6 L14 23.5 L10.7 20.6 L6.5 20 L6.2 15.8 L4 12.5 L6.5 9.5 L7 5.5 L11 5 Z" fill="#5ce0ff" stroke="#123a52" stroke-width="1.6" stroke-linejoin="round"/><path d="M9.5 13.5 L12.5 16.5 L18.5 9.5" fill="none" stroke="#0b2438" stroke-width="2.2" stroke-linecap="round" stroke-linejoin="round"/></symbol>
</defs></svg>
